PathFileType	4	(X/Y/Z)	/Users/niels/Desktop/University/Third Semester/Perception and Action/Exam/Gymnastics Motion Tracking/Code for Gym Tracking/Analyzed Data/Webcam_Backflip/id5_2_trajectory_Sports2D/id5_2_trajectory_Sports2D_px_person00.trc
DataRate	CameraRate	NumFrames	NumMarkers	Units	OrigDataRate	OrigDataStartFrame	OrigNumFrames
29.423076923076923	29.423076923076923	10	22	m	29.423076923076923	34	52
Frame#	Time	Hip			RHip			RKnee			RAnkle			RBigToe			RSmallToe			RHeel			LHip			LKnee			LAnkle			LBigToe			LSmallToe			LHeel			Neck			Head			Nose			RShoulder			RElbow			RWrist			LShoulder			LElbow			LWrist		
		X1	Y1	Z1	X2	Y2	Z2	X3	Y3	Z3	X4	Y4	Z4	X5	Y5	Z5	X6	Y6	Z6	X7	Y7	Z7	X8	Y8	Z8	X9	Y9	Z9	X10	Y10	Z10	X11	Y11	Z11	X12	Y12	Z12	X13	Y13	Z13	X14	Y14	Z14	X15	Y15	Z15	X16	Y16	Z16	X17	Y17	Z17	X18	Y18	Z18	X19	Y19	Z19	X20	Y20	Z20	X21	Y21	Z21	X22	Y22	Z22
34	1.1555555555555557	1.0004817335039458	-0.7768765760408544	0.0	0.968655572622882	-0.7782024610327724	0.0	0.9793471795489569	-1.0204482913463615	0.0	0.9550626165731672	-1.084926985677339	0.0			0.0			0.0	0.9416435271591025	-1.0933675969013628	0.0	1.0358167254942945	-0.7818277262119728	0.0	1.012848796968745	-1.0177969400258413	0.0	0.9862534208843119	-1.0791984917520112	0.0	1.05435142993927	-1.0937250609397888	0.0	1.0599006689336155	-1.1019045616949361	0.0	0.959554179656537	-1.0944236011374453	0.0	1.015932215036712	-0.4706285703374587	0.0	1.0512011374010373	-0.35038870830324204	0.0	1.0555873490712648	-0.4172089010526617	0.0	0.9480450938991486	-0.4957891417756754	0.0	0.8363496598787278	-0.5750202474669706	0.0	0.7051518053093169	-0.6329132602350027	0.0	1.061027269014084	-0.5409244789029102	0.0	1.070606878404618	-0.6852506725782059	0.0	1.0925832312564128	-0.8055257376242714	0.0
35	1.189542483660131	0.9996029470221234	-0.7773622055004493	0.0	0.9677545778675497	-0.7785641313840979	0.0	0.9788880198880233	-1.019921027381249	0.0	0.9546711183860563	-1.0813382258251412	0.0			0.0			0.0	0.939803330526317	-1.0885672287208532	0.0	1.0344578539790423	-0.7819525183113054	0.0	1.0118245714246925	-1.0168629606182462	0.0	0.9850080870058252	-1.0766705015246973	0.0	1.05435142993927	-1.0937250609397888	0.0	1.0607448397801342	-1.0989445749922844	0.0	0.9617923925337141	-1.0915101764831905	0.0	1.0138170171429324	-0.47089006789445	0.0	1.0485030079892992	-0.3495250765658181	0.0	1.0538343923329663	-0.41710617299342284	0.0	0.9460237613831095	-0.49658347056792	0.0	0.8457402287593339	-0.5939241972033678	0.0	0.7242430322755488	-0.673239429596403	0.0	1.05906179165923	-0.5403396584198995	0.0	1.0706789468485733	-0.6835270764738928	0.0	1.0915318560922591	-0.8026759045678065	0.0
36	1.223529411764706	0.9988004104572065	-0.778065212149837	0.0	0.9673246851398243	-0.7792990752409428	0.0	0.9790256205128313	-1.0193240467503217	0.0	0.9549332607711983	-1.0798894409798758	0.0			0.0			0.0	0.937831677016326	-1.0848953111664636	0.0	1.0328712368700914	-0.7825596020813578	0.0	1.0105196409069443	-1.0161022533711193	0.0	0.9835655824198543	-1.076423048752301	0.0	1.05435142993927	-1.0937250609397888	0.0	1.061797744891408	-1.0947360751551667	0.0	0.9635807739192744	-1.087401399913658	0.0	1.0117981802001188	-0.471071411224616	0.0	1.0459557285715329	-0.34830736044947025	0.0	1.0523688344449131	-0.4168524831831866	0.0	0.9440586272386954	-0.49790609368211425	0.0	0.8557765210725669	-0.6106382114059473	0.0	0.7452399089344508	-0.7069402855478157	0.0	1.0567502754618319	-0.5393459991334518	0.0	1.0704058169881632	-0.6817196901098942	0.0	1.090269414356103	-0.8001147630495002	0.0
37	1.2575163398692812	0.998094955090668	-0.7790625916661492	0.0	0.967452118848507	-0.7805059242025535	0.0	0.9795545385257644	-1.0188593314141217	0.0	0.9558292549909253	-1.0812267940590823	0.0			0.0			0.0	0.9361067048248187	-1.082456126778516	0.0	1.0314319663889961	-0.783533964493557	0.0	1.009177347538943	-1.0157694633365524	0.0	0.9825303636476881	-1.0791152512395366	0.0	1.05435142993927	-1.0937250609397888	0.0	1.0627329663361433	-1.0900372675971244	0.0	0.9651611640495676	-1.0827800451262592	0.0	1.0099445228822501	-0.4710501376484338	0.0	1.043650318494128	-0.3469582779213542	0.0	1.0512468085671052	-0.4164852034232859	0.0	0.9422268014693405	-0.4997746113860607	0.0	0.8657708314693245	-0.6251648240094864	0.0	0.7662501573379111	-0.7346921251394214	0.0	1.0543225533163612	-0.5382407905643894	0.0	1.0695105400005043	-0.6802486601583941	0.0	1.0889331563722828	-0.7981524779406245	0.0
38	1.2915032679738563	0.9976094820087865	-0.7803298147284886	0.0	0.968160954948482	-0.7821787029651993	0.0	0.9802702669897864	-1.0188381618593927	0.0	0.9572045608211774	-1.0862909121802824	0.0			0.0			0.0	0.9350394556312062	-1.0811322449518999	0.0	1.0304298481950378	-0.7847305715151633	0.0	1.0079109512355262	-1.016038795135683	0.0	0.9820032017823686	-1.0854712301689868	0.0	1.05435142993927	-1.0937250609397888	0.0	1.0631431981118404	-1.0860538094953431	0.0	0.9664357192148947	-1.0786881634427292	0.0	1.0083306762864508	-0.4708492977610506	0.0	1.0415333560795765	-0.3457314760756909	0.0	1.0503554985166974	-0.4160396368686711	0.0	0.9406582568466921	-0.5020339562955584	0.0	0.8752473421203907	-0.6375742325355227	0.0	0.7862051957757221	-0.7575376464777693	0.0	1.0519654976218191	-0.5372892770650002	0.0	1.0678241386640133	-0.6795076226333194	0.0	1.087569057680856	-0.7968684398642844	0.0
39	1.3254901960784315	0.9974803810327286	-0.7816982523554699	0.0	0.9693411529837608	-0.7841254116805524	0.0	0.9810818602880997	-1.0193234258257438	0.0	0.9588356925110543	-1.095823559203881	0.0			0.0			0.0	0.9349948860622538	-1.0810212199372962	0.0	1.029865633374121	-0.7859493048499631	0.0	1.0067457581171209	-1.0167197724755592	0.0	0.9817796616208827	-1.0960009040085978	0.0	1.05435142993927	-1.0937250609397888	0.0	1.0628036329022716	-1.083683551815686	0.0	0.9672802648063863	-1.0758205633126576	0.0	1.0069644048934414	-0.470610907208897	0.0	1.0395181230736663	-0.34478348617016924	0.0	1.0495316517620377	-0.4155735629582964	0.0	0.939493062840179	-0.5044858532760088	0.0	0.8838868415819212	-0.6479856121281986	0.0	0.8050751028861752	-0.7764545216093975	0.0	1.0497029666841795	-0.5365057695037571	0.0	1.0654646579065805	-0.679583198450866	0.0	1.0861462588983453	-0.7962377997688501	0.0
40	1.3594771241830066	0.9977584082204305	-0.7829834481548189	0.0	0.970801317794995	-0.786044237792928	0.0	0.9819240844027356	-1.020061501820133	0.0	0.9604516891198142	-1.1094289900609664	0.0			0.0			0.0	0.9361163516156372	-1.0824077689425964	0.0	1.029507125105747	-0.7869897518548049	0.0	1.0057646020914586	-1.0173113404553342	0.0	0.9817853916890662	-1.1101622878612782	0.0	1.05435142993927	-1.0937250609397888	0.0	1.0617659828374826	-1.083077530834601	0.0	0.9677194255410918	-1.0742320875765128	0.0	1.0057640781933896	-0.47047921166568824	0.0	1.0376065548300855	-0.34414477084417944	0.0	1.0486922675813493	-0.4151810172336679	0.0	0.9388061930918973	-0.50697509918609	0.0	0.8914885217766998	-0.656589469635467	0.0	0.8234661106161623	-0.792212420596885	0.0	1.0473362498868957	-0.535635120140667	0.0	1.0627534784510722	-0.6802060442147538	0.0	1.0845972818317957	-0.796208081326004	0.0
41	1.3934640522875819	0.9984173258048331	-0.7841749675328021	0.0	0.9724438868688517	-0.7878013833138248	0.0	0.9827194630715472	-1.0208278826396238	0.0	0.961711653189268	-1.124798437122457	0.0			0.0			0.0	0.9382538819113261	-1.0854456534643844	0.0	1.0290704917249454	-0.7878400022104257	0.0	1.005138940612016	-1.0174833559044942	0.0	0.9822261149302939	-1.1256496008058283	0.0	1.05435142993927	-1.0937250609397888	0.0	1.060235454018517	-1.0838504804110443	0.0	0.9678727479324608	-1.07360024068456	0.0	1.0046373258055523	-0.470510607012556	0.0	1.0359189634627117	-0.34376744913985174	0.0	1.0478514926901557	-0.41493577093951933	0.0	0.9386852543066975	-0.509413538676684	0.0	0.8980662322937554	-0.6636736244830552	0.0	0.8421239060570604	-0.8053927775425497	0.0	1.0444968281841607	-0.5342902602795782	0.0	1.0599071895057288	-0.6809317970562881	0.0	1.0828167087592402	-0.7966484618654838	0.0
42	1.4274509803921571	0.9993437477889506	-0.7854609629198718	0.0	0.9742937824561498	-0.7895725363862981	0.0	0.9833873127211027	-1.0216831031887348	0.0	0.9622869336436782	-1.1386566558271003	0.0			0.0			0.0	0.9410878830488667	-1.089956624763914	0.0	1.0283567650150602	-0.7887563853063512	0.0	1.0050017912870155	-1.0173949786817165	0.0	0.9832596758919795	-1.139343578762557	0.0	1.05435142993927	-1.0937250609397888	0.0	1.0584298883411882	-1.0854711425481642	0.0	0.9678667061960915	-1.0735337772841025	0.0	1.0035563839969188	-0.4706633745051575	0.0	1.0346239781610798	-0.3435828593002325	0.0	1.047089894848132	-0.4148618678905972	0.0	0.9392836946402409	-0.5117700516960021	0.0	0.9039306053470186	-0.669604675804634	0.0	0.861676834531107	-0.8164193420231122	0.0	1.0408998641142033	-0.5322322642326092	0.0	1.0568814927257044	-0.6813783810002276	0.0	1.0806878043150134	-0.7973797195463834	0.0
43	1.4614379084967322	1.0002198332334948	-0.7871123418114088	0.0	0.9763030199554612	-0.7916807811647251	0.0	0.9837996096762707	-1.022924697870157	0.0	0.9620705556460509	-1.1489082694331327	0.0			0.0			0.0	0.9442978777584335	-1.0955113943545858	0.0	1.0272524828481449	-0.7901321195284575	0.0	1.0052543148275739	-1.0175900160150246	0.0	0.9846501359892628	-1.1493420472990032	0.0	1.05435142993927	-1.0937250609397888	0.0	1.0565136967973734	-1.0874912061431772	0.0	0.9677965089069074	-1.0737186382279211	0.0	1.0025468774950457	-0.47086556404793367	0.0	1.0338256409825837	-0.34351496036847795	0.0	1.0465300188465936	-0.41495016457750394	0.0	0.9406899471913698	-0.5140161387610624	0.0	0.9096592153182468	-0.6747276588456398	0.0	0.8824941634825235	-0.8255820275122967	0.0	1.0365921264809783	-0.5296100355162924	0.0	1.0535384993724823	-0.6813926424701361	0.0	1.0781504543031175	-0.7983109598806628	0.0
